<svg width="559" height="435" viewBox="0 0 559 435" fill="none" xmlns="http://www.w3.org/2000/svg">
<path d="M543.322 433.182C534.539 411.193 519.194 418.102 506.176 409.176C489.646 397.849 495.899 372.398 471.15 345.972C450.532 323.958 430.645 348.571 407.055 332.629C383.464 316.687 386.137 293.91 357.044 265.197C332.72 241.191 299.663 217.566 238.969 268.019C220.506 283.366 211.209 324.125 175.58 319.171C162.307 317.325 151.364 304.94 138.482 301.115C124.869 297.066 110.95 305.043 101.368 318.914C86.8444 339.94 93.0273 374.56 78.2272 394.333C77.3265 395.532 76.3692 396.646 75.3615 397.669C57.4775 415.889 18.9832 412.111 12.266 433.182" stroke="#A7A9AC" stroke-miterlimit="10" stroke-dasharray="3 2.5"/>
<path d="M202.513 269.488C202.908 265 202.531 260.447 201.412 256.199L197.13 257.768C196.598 255.886 195.884 254.111 195.009 252.491L198.241 248.294C196.222 244.739 193.627 241.889 190.665 239.973L188.438 245.279C187.099 244.466 185.687 243.906 184.239 243.614L184.377 237.493C181.131 236.947 177.838 237.469 174.765 239.015L175.9 244.933C174.538 245.67 173.254 246.656 172.082 247.865L169.046 243.397C166.184 245.758 164.044 249.482 163.027 253.87L166.865 256.942C166.277 258.793 165.871 260.745 165.66 262.746L161.233 262.555C160.838 267.042 161.215 271.595 162.334 275.843L166.616 274.273C167.148 276.156 167.861 277.932 168.737 279.551L165.505 283.749C167.525 287.303 170.119 290.152 173.08 292.069L175.308 286.763C176.647 287.577 178.059 288.137 179.507 288.429L179.368 294.549C182.615 295.097 185.909 294.576 188.982 293.029L187.846 287.11C189.208 286.373 190.492 285.387 191.663 284.177L194.7 288.646C197.271 285.854 199.333 282.267 200.719 278.173L196.881 275.101C197.469 273.25 197.874 271.297 198.086 269.297L202.513 269.488ZM183.01 279.786C181.041 280.097 179.049 279.594 177.287 278.341C175.525 277.088 174.071 275.141 173.109 272.745C172.148 270.35 171.721 267.614 171.884 264.884C172.048 262.153 172.793 259.551 174.026 257.406C175.259 255.262 176.924 253.67 178.811 252.834C180.698 251.997 182.722 251.953 184.628 252.707C186.533 253.461 188.234 254.978 189.515 257.068C190.796 259.158 191.601 261.727 191.826 264.448C192.128 268.098 191.369 271.765 189.716 274.641C188.062 277.517 185.65 279.368 183.01 279.786Z" fill="#E6E7E8"/>
<path d="M250.115 363.985C250.751 356.783 250.146 349.474 248.35 342.656L241.481 345.17C240.626 342.148 239.48 339.299 238.074 336.7L243.262 329.962C240.02 324.256 235.856 319.682 231.102 316.606L227.526 325.116C225.377 323.809 223.111 322.91 220.788 322.442L221.01 312.618C215.8 311.739 210.513 312.576 205.581 315.059L207.399 324.554C205.213 325.737 203.152 327.321 201.272 329.264L196.398 322.092C190.63 327.327 188.311 332.636 186.736 338.902L192.891 343.845C191.947 346.816 191.296 349.949 190.957 353.16L183.85 352.853C183.215 360.055 183.821 367.363 185.617 374.181L192.486 371.668C193.34 374.691 194.486 377.54 195.893 380.138L190.705 386.876C193.946 392.582 198.111 397.156 202.865 400.232L206.439 391.724C208.589 393.029 210.856 393.928 213.179 394.396L212.957 404.221C218.167 405.099 223.454 404.262 228.386 401.779L226.568 392.284C228.754 391.102 230.815 389.518 232.695 387.574L237.569 394.745C241.696 390.264 245.006 384.507 247.231 377.936L241.075 372.995C242.02 370.024 242.67 366.89 243.009 363.678L250.115 363.985ZM218.812 380.514C215.652 381.014 212.455 380.207 209.626 378.196C206.797 376.184 204.464 373.059 202.92 369.214C201.376 365.369 200.692 360.977 200.954 356.595C201.215 352.212 202.411 348.035 204.39 344.593C206.369 341.15 209.042 338.595 212.072 337.252C215.101 335.91 218.35 335.838 221.408 337.048C224.466 338.258 227.197 340.694 229.253 344.049C231.31 347.404 232.601 351.526 232.963 355.895C233.203 358.796 233.028 361.734 232.447 364.541C231.866 367.349 230.89 369.97 229.576 372.256C228.262 374.542 226.635 376.448 224.788 377.865C222.941 379.282 220.911 380.182 218.812 380.514Z" fill="#E6E7E8"/>
<path d="M227.451 356.768C227.688 359.629 227.306 362.524 226.353 365.085C225.399 367.647 223.918 369.76 222.096 371.158C220.275 372.556 218.194 373.175 216.117 372.938C214.04 372.702 212.061 371.619 210.43 369.827C208.798 368.035 207.588 365.615 206.952 362.872C206.315 360.129 206.282 357.187 206.855 354.418C207.428 351.648 208.582 349.176 210.172 347.314C211.762 345.451 213.715 344.282 215.785 343.955C217.16 343.737 218.552 343.896 219.882 344.422C221.212 344.948 222.454 345.831 223.538 347.021C224.621 348.211 225.524 349.684 226.195 351.356C226.867 353.029 227.293 354.867 227.451 356.768Z" fill="#E6E7E8"/>
<path d="M527.142 195.707C527.607 190.437 527.165 185.091 525.851 180.103L520.823 181.946C520.197 179.735 519.359 177.65 518.33 175.749L522.125 170.82C519.754 166.645 516.707 163.297 513.229 161.045L510.614 167.27C509.041 166.316 507.383 165.659 505.684 165.315L505.846 158.129C502.034 157.487 498.167 158.099 494.558 159.916L495.891 166.865C494.291 167.73 492.784 168.89 491.409 170.312L487.842 165.064C484.48 167.836 481.966 172.209 480.771 177.362L485.274 180.978C484.584 183.152 484.108 185.444 483.86 187.794L478.661 187.569C478.196 192.838 478.639 198.185 479.953 203.173L484.981 201.33C485.607 203.541 486.446 205.626 487.474 207.527L483.678 212.456C486.05 216.631 489.097 219.979 492.574 222.23L495.191 216.005C496.763 216.96 498.421 217.617 500.12 217.96L499.958 225.147C503.77 225.789 507.638 225.176 511.246 223.36L509.913 216.41C511.512 215.545 513.02 214.386 514.396 212.964L517.962 218.21C520.982 214.932 523.404 210.72 525.032 205.913L520.529 202.298C521.22 200.124 521.696 197.831 521.943 195.482L527.142 195.707ZM504.241 207.799C501.929 208.165 499.591 207.575 497.521 206.103C495.452 204.632 493.744 202.345 492.615 199.532C491.486 196.719 490.985 193.507 491.177 190.301C491.368 187.095 492.243 184.039 493.691 181.52C495.138 179.001 497.094 177.132 499.31 176.15C501.526 175.167 503.902 175.115 506.14 176C508.377 176.885 510.375 178.667 511.879 181.121C513.384 183.575 514.329 186.59 514.594 189.786C514.77 191.909 514.641 194.058 514.216 196.112C513.791 198.166 513.078 200.084 512.116 201.757C511.155 203.429 509.965 204.824 508.613 205.861C507.262 206.897 505.777 207.556 504.241 207.799Z" fill="#E6E7E8"/>
<path d="M510.56 190.433C510.733 192.526 510.454 194.643 509.756 196.517C509.059 198.391 507.975 199.936 506.642 200.959C505.31 201.981 503.787 202.434 502.268 202.26C500.749 202.087 499.301 201.295 498.108 199.984C496.915 198.673 496.029 196.902 495.564 194.896C495.099 192.889 495.074 190.737 495.493 188.711C495.913 186.686 496.757 184.877 497.92 183.515C499.083 182.153 500.512 181.297 502.026 181.058C503.032 180.898 504.05 181.014 505.024 181.399C505.997 181.784 506.906 182.43 507.698 183.301C508.491 184.171 509.151 185.249 509.643 186.473C510.134 187.697 510.445 189.042 510.56 190.433Z" fill="#E6E7E8"/>
<path d="M542.847 333.172L525.795 339.272L516.603 334.057L533.655 327.957L542.847 333.172Z" stroke="#707070" stroke-miterlimit="10"/>
<path d="M538.231 307.585L521.179 313.686L511.987 308.471L529.039 302.37L538.231 307.585Z" stroke="#707070" stroke-miterlimit="10"/>
<path d="M538.226 307.588L542.846 333.172" stroke="#707070" stroke-miterlimit="10"/>
<path d="M520.986 313.828L525.796 339.274" stroke="#707070" stroke-miterlimit="10"/>
<path d="M511.796 308.613L516.606 334.059" stroke="#707070" stroke-miterlimit="10"/>
<path d="M528.847 302.512L533.657 327.958" stroke="#707070" stroke-miterlimit="10"/>
<path d="M235.986 434.007L242.683 330.469" stroke="#231F20" stroke-width="1.5" stroke-miterlimit="10"/>
<path d="M321.674 433.952L314.927 330.421" stroke="#231F20" stroke-width="1.5" stroke-miterlimit="10"/>
<path d="M363.454 23.5166H194.055V336.238H363.454V23.5166Z" fill="white" stroke="#A7A9AC" stroke-miterlimit="10"/>
<path d="M354.182 325.029L354.084 38.0193L203.286 38.1175L203.384 325.127L354.182 325.029Z" fill="#E6E7E8"/>
<path d="M278.717 68.5225C278.717 68.5225 240.576 96.0652 240.594 149.436C240.609 195.08 254.792 267.632 254.792 267.632L278.785 267.617L302.776 267.6C302.776 267.6 316.91 195.031 316.894 149.386C316.876 96.0164 278.717 68.5225 278.717 68.5225Z" fill="url(#paint0_linear_1_542)"/>
<path d="M234.742 238.885C232.62 251.504 232.412 293.843 232.392 304.085C232.393 304.18 232.418 304.271 232.462 304.344C232.507 304.416 232.568 304.465 232.636 304.481C232.703 304.498 232.773 304.481 232.833 304.434C232.893 304.387 232.939 304.313 232.963 304.224C235.509 294.978 245.958 258.112 252.005 253.118C255.129 235.847 253.238 219.693 251.991 214.544C251.991 214.553 238.513 216.43 234.742 238.885Z" fill="url(#paint1_linear_1_542)"/>
<path d="M322.808 238.834C324.936 251.45 325.175 293.789 325.201 304.031C325.2 304.125 325.175 304.216 325.13 304.287C325.086 304.359 325.025 304.407 324.958 304.424C324.891 304.44 324.821 304.424 324.762 304.378C324.702 304.332 324.656 304.258 324.631 304.17C322.078 294.927 311.601 258.074 305.555 253.085C303.431 240.395 303.427 227.204 305.541 214.511C305.541 214.511 319.02 216.378 322.808 238.834Z" fill="url(#paint2_linear_1_542)"/>
<path d="M248.465 305.481C248.465 305.674 248.423 305.863 248.345 306.024C248.268 306.185 248.157 306.31 248.028 306.384C247.899 306.458 247.757 306.477 247.62 306.439C247.482 306.402 247.356 306.309 247.258 306.172C247.159 306.035 247.091 305.861 247.064 305.672C247.037 305.482 247.051 305.286 247.104 305.107C247.158 304.929 247.248 304.776 247.365 304.669C247.481 304.561 247.618 304.504 247.758 304.504C247.945 304.504 248.125 304.607 248.257 304.79C248.39 304.973 248.465 305.222 248.465 305.481Z" fill="white"/>
<path d="M255.412 304.966H249.772V305.994H255.412V304.966Z" fill="white"/>
<path d="M248.467 309.247C248.467 309.44 248.426 309.629 248.348 309.79C248.27 309.95 248.16 310.076 248.03 310.149C247.901 310.223 247.759 310.243 247.622 310.205C247.485 310.167 247.359 310.074 247.26 309.938C247.161 309.801 247.094 309.627 247.066 309.437C247.039 309.248 247.053 309.051 247.107 308.873C247.16 308.694 247.251 308.542 247.367 308.435C247.483 308.327 247.62 308.27 247.76 308.27C247.947 308.27 248.127 308.373 248.26 308.556C248.393 308.739 248.467 308.988 248.467 309.247Z" fill="white"/>
<path d="M255.414 308.73H249.774V309.758H255.414V308.73Z" fill="white"/>
<path d="M248.468 313.013C248.468 313.206 248.426 313.395 248.349 313.556C248.271 313.717 248.161 313.842 248.031 313.916C247.902 313.99 247.76 314.009 247.623 313.971C247.486 313.934 247.36 313.841 247.261 313.704C247.162 313.567 247.095 313.393 247.067 313.204C247.04 313.014 247.054 312.818 247.108 312.639C247.161 312.461 247.252 312.308 247.368 312.201C247.484 312.094 247.621 312.036 247.761 312.036C247.854 312.036 247.946 312.061 248.031 312.111C248.117 312.16 248.195 312.232 248.261 312.322C248.326 312.413 248.379 312.521 248.414 312.639C248.45 312.758 248.468 312.885 248.468 313.013Z" fill="white"/>
<path d="M255.415 312.497H249.775V313.524H255.415V312.497Z" fill="white"/>
<path d="M335.263 89.1009C335.263 89.2942 335.304 89.4831 335.382 89.6437C335.46 89.8044 335.57 89.9296 335.699 90.0035C335.829 90.0775 335.971 90.097 336.108 90.0593C336.245 90.0216 336.371 89.9284 336.47 89.7918C336.569 89.6551 336.636 89.4811 336.664 89.2916C336.691 89.1021 336.677 88.9057 336.623 88.7271C336.57 88.5486 336.479 88.396 336.363 88.2886C336.247 88.1813 336.11 88.124 335.97 88.124C335.877 88.124 335.785 88.1492 335.699 88.1983C335.614 88.2474 335.536 88.3195 335.47 88.4102C335.404 88.501 335.352 88.6086 335.317 88.7271C335.281 88.8457 335.263 88.9726 335.263 89.1009Z" fill="white"/>
<path d="M333.956 88.5903H328.316V89.6175H333.956V88.5903Z" fill="white"/>
<path d="M335.263 92.8656C335.263 93.0588 335.305 93.2477 335.383 93.4084C335.46 93.569 335.571 93.6943 335.7 93.7682C335.829 93.8421 335.971 93.8614 336.108 93.8237C336.245 93.786 336.372 93.6931 336.47 93.5564C336.569 93.4198 336.637 93.2457 336.664 93.0562C336.691 92.8667 336.677 92.6703 336.624 92.4918C336.57 92.3133 336.48 92.1606 336.363 92.0532C336.247 91.9459 336.11 91.8887 335.97 91.8887C335.783 91.8887 335.603 91.9915 335.47 92.1747C335.338 92.3579 335.263 92.6065 335.263 92.8656Z" fill="white"/>
<path d="M333.956 92.355H328.316V93.3822H333.956V92.355Z" fill="white"/>
<path d="M335.265 96.6314C335.265 96.8246 335.306 97.0135 335.384 97.1742C335.461 97.3348 335.572 97.46 335.701 97.534C335.83 97.6079 335.972 97.6272 336.11 97.5895C336.247 97.5518 336.373 97.4589 336.472 97.3222C336.571 97.1856 336.638 97.0115 336.665 96.822C336.692 96.6325 336.678 96.4359 336.625 96.2574C336.571 96.0789 336.481 95.9264 336.365 95.819C336.248 95.7117 336.112 95.6543 335.972 95.6543C335.784 95.6543 335.604 95.7573 335.472 95.9405C335.339 96.1237 335.265 96.3723 335.265 96.6314Z" fill="white"/>
<path d="M333.958 96.1218H328.317V97.1476H333.958V96.1218Z" fill="white"/>
<path d="M299.946 148.219C299.948 154.016 298.706 159.683 296.378 164.503C294.051 169.324 290.741 173.083 286.868 175.303C282.995 177.524 278.733 178.108 274.62 176.98C270.507 175.852 266.729 173.063 263.762 168.967C260.796 164.871 258.775 159.65 257.955 153.966C257.135 148.282 257.552 142.389 259.155 137.033C260.757 131.677 263.472 127.098 266.957 123.875C270.442 120.652 274.54 118.93 278.733 118.927C281.517 118.925 284.275 119.681 286.848 121.152C289.42 122.623 291.759 124.78 293.728 127.5C295.698 130.22 297.261 133.45 298.328 137.005C299.394 140.56 299.944 144.371 299.946 148.219Z" fill="#231F20"/>
<path d="M292.426 167.147C299.982 156.701 299.982 139.766 292.426 129.321C284.87 118.876 272.619 118.876 265.063 129.321C257.507 139.766 257.507 156.701 265.063 167.147C272.619 177.592 284.87 177.592 292.426 167.147Z" stroke="#707070" stroke-miterlimit="10"/>
<path d="M290.537 166.11C297.677 157.096 298.179 141.788 291.658 131.918C285.137 122.048 274.063 121.354 266.923 130.368C259.784 139.382 259.282 154.691 265.802 164.56C272.323 174.43 283.397 175.124 290.537 166.11Z" fill="#E6E7E8"/>
<g opacity="0.65">
<path opacity="0.65" d="M298.022 131.638L291.867 123.934L262.56 168.673L268.715 176.377L298.022 131.638Z" fill="white"/>
<path opacity="0.65" d="M300.678 134.958L299.511 133.499L270.205 178.237L271.371 179.697L300.678 134.958Z" fill="white"/>
<path opacity="0.65" d="M289.893 122.019L287.896 119.52L258.562 164.258L260.559 166.757L289.893 122.019Z" fill="white"/>
</g>
<path d="M278.768 219.728C275.604 218.954 271.294 235.247 271.294 249.941C271.294 262.647 276.907 295.544 278.421 304.195C278.435 304.274 278.469 304.343 278.517 304.39C278.565 304.437 278.623 304.459 278.681 304.452C278.739 304.445 278.794 304.41 278.835 304.352C278.876 304.295 278.902 304.219 278.906 304.138C279.582 290.83 282.922 220.744 278.768 219.728Z" fill="url(#paint3_linear_1_542)"/>
<path d="M257.717 91.8176H299.75C293.679 82.5566 286.579 74.6929 278.717 68.5225C270.866 74.6963 263.777 82.56 257.717 91.8176Z" fill="#231F20"/>
<path d="M313.827 49.2807L329.169 49.2737" stroke="white" stroke-linejoin="round"/>
<path d="M313.828 53.1583L338.279 53.144" stroke="white" stroke-linejoin="round"/>
<path d="M313.829 57.0345L338.28 57.0203" stroke="white" stroke-linejoin="round"/>
<path d="M313.831 60.9112L338.282 60.897" stroke="white" stroke-linejoin="round"/>
<path d="M216.983 87.9369L232.324 87.9299" stroke="white" stroke-linejoin="round"/>
<path d="M216.985 91.815L241.436 91.8008" stroke="white" stroke-linejoin="round"/>
<path d="M216.986 95.691L241.437 95.6768" stroke="white" stroke-linejoin="round"/>
<path d="M216.987 99.5687L241.438 99.5544" stroke="white" stroke-linejoin="round"/>
<path d="M336.261 133.317L344.784 133.312" stroke="white" stroke-linejoin="round"/>
<path d="M320.266 137.204L344.716 137.19" stroke="white" stroke-linejoin="round"/>
<path d="M320.268 141.08L344.718 141.066" stroke="white" stroke-linejoin="round"/>
<path d="M320.269 144.957L344.72 144.943" stroke="white" stroke-linejoin="round"/>
<path d="M227.135 199.254L235.658 199.25" stroke="white" stroke-linejoin="round"/>
<path d="M211.14 203.142L235.591 203.128" stroke="white" stroke-linejoin="round"/>
<path d="M211.141 207.018L235.592 207.004" stroke="white" stroke-linejoin="round"/>
<path d="M211.142 210.895L235.593 210.88" stroke="white" stroke-linejoin="round"/>
<path d="M302.97 296.683L287.732 296.69" stroke="white" stroke-linejoin="round"/>
<path d="M312.251 300.553L287.801 300.568" stroke="white" stroke-linejoin="round"/>
<path d="M312.253 304.43L287.802 304.444" stroke="white" stroke-linejoin="round"/>
<path d="M312.254 308.308L287.803 308.322" stroke="white" stroke-linejoin="round"/>
<path d="M278.287 244.763L298.87 244.75L298.888 290.411" stroke="#A7A9AC" stroke-miterlimit="10"/>
<path d="M278.288 243.075C278.048 243.075 277.813 243.173 277.614 243.358C277.414 243.542 277.259 243.804 277.167 244.111C277.076 244.417 277.052 244.755 277.099 245.08C277.146 245.405 277.262 245.704 277.432 245.938C277.602 246.172 277.819 246.331 278.054 246.395C278.29 246.458 278.534 246.424 278.755 246.296C278.976 246.169 279.165 245.953 279.298 245.676C279.431 245.4 279.501 245.075 279.5 244.743C279.498 244.3 279.37 243.876 279.143 243.563C278.916 243.25 278.608 243.075 278.288 243.075Z" fill="#BCBEC0"/>
<path d="M285.962 82.1017L285.957 57.0542L309.862 57.0388" stroke="#A7A9AC" stroke-miterlimit="10"/>
<path d="M247.609 158.317L227.12 158.331L227.103 106.594" stroke="#A7A9AC" stroke-miterlimit="10"/>
<path d="M237.356 265.492L221.69 265.517L221.674 216.365" stroke="#A7A9AC" stroke-miterlimit="10"/>
<path d="M237.356 263.848C237.116 263.848 236.882 263.946 236.682 264.131C236.483 264.315 236.328 264.576 236.236 264.883C236.144 265.189 236.12 265.526 236.167 265.851C236.214 266.176 236.329 266.474 236.499 266.709C236.668 266.943 236.884 267.103 237.119 267.167C237.354 267.232 237.598 267.199 237.82 267.072C238.041 266.945 238.23 266.73 238.364 266.455C238.497 266.179 238.568 265.855 238.568 265.524C238.568 265.304 238.536 265.086 238.476 264.883C238.415 264.679 238.325 264.495 238.213 264.339C238.1 264.183 237.967 264.06 237.82 263.976C237.672 263.892 237.515 263.848 237.356 263.848Z" fill="#BCBEC0"/>
<path d="M282.188 164.663L332.501 164.631V152.412" stroke="#A7A9AC" stroke-miterlimit="10"/>
<path d="M247.608 156.663C247.369 156.663 247.134 156.762 246.935 156.946C246.736 157.13 246.58 157.392 246.489 157.698C246.397 158.004 246.373 158.341 246.42 158.666C246.466 158.991 246.582 159.29 246.751 159.524C246.921 159.758 247.137 159.918 247.372 159.982C247.607 160.047 247.851 160.014 248.072 159.887C248.294 159.76 248.483 159.545 248.616 159.27C248.749 158.994 248.821 158.67 248.821 158.339C248.821 157.895 248.693 157.468 248.465 157.154C248.238 156.84 247.93 156.663 247.608 156.663Z" fill="#BCBEC0"/>
<path d="M282.268 162.988C282.028 162.988 281.794 163.086 281.594 163.27C281.395 163.455 281.24 163.717 281.148 164.024C281.056 164.33 281.033 164.667 281.08 164.993C281.127 165.318 281.243 165.616 281.413 165.85C281.583 166.085 281.8 166.244 282.035 166.307C282.271 166.371 282.514 166.337 282.736 166.209C282.957 166.081 283.146 165.865 283.279 165.589C283.411 165.313 283.482 164.988 283.481 164.656C283.479 164.213 283.351 163.789 283.124 163.476C282.897 163.163 282.589 162.988 282.268 162.988Z" fill="#BCBEC0"/>
<path d="M285.956 80.4314C285.716 80.4314 285.482 80.5297 285.283 80.7138C285.083 80.898 284.928 81.1597 284.836 81.4659C284.745 81.772 284.721 82.1088 284.767 82.4339C284.814 82.7589 284.93 83.0576 285.099 83.2919C285.269 83.5263 285.485 83.6858 285.72 83.7504C285.955 83.8151 286.199 83.782 286.42 83.6552C286.642 83.5283 286.831 83.3135 286.964 83.0379C287.097 82.7624 287.168 82.4385 287.168 82.1071C287.168 81.6627 287.041 81.2364 286.813 80.9221C286.586 80.6079 286.278 80.4314 285.956 80.4314Z" fill="#BCBEC0"/>
<path d="M119.919 67.415H44.5511V235.965H140.266V97.7268L119.919 67.415Z" fill="white" stroke="#A7A9AC" stroke-miterlimit="10"/>
<path d="M119.913 74.6929H49.8116V228.683H134.994V97.4364" stroke="#A7A9AC" stroke-miterlimit="10"/>
<path d="M119.918 67.415V97.6361L140.265 97.7227" stroke="#A7A9AC" stroke-miterlimit="10"/>
<path d="M113.609 162.099C113.611 167.896 112.369 173.562 110.041 178.383C107.714 183.204 104.404 186.963 100.531 189.183C96.6581 191.404 92.3958 191.987 88.283 190.86C84.1702 189.732 80.3918 186.943 77.4254 182.847C74.459 178.751 72.4379 173.53 71.6177 167.846C70.7975 162.162 71.215 156.269 72.8174 150.913C74.4198 145.557 77.1353 140.978 80.6202 137.755C84.1052 134.532 88.2033 132.81 92.3962 132.807C95.1804 132.805 97.9377 133.561 100.511 135.032C103.083 136.503 105.421 138.66 107.391 141.38C109.361 144.1 110.924 147.33 111.991 150.885C113.057 154.44 113.607 158.251 113.609 162.099Z" fill="url(#paint4_linear_1_542)"/>
<path d="M105.768 181.462C113.498 171.262 113.783 154.331 106.405 143.646C99.0265 132.961 86.7789 132.567 79.0491 142.766C71.3192 152.966 71.0342 169.896 78.4125 180.582C85.7908 191.267 98.0384 191.661 105.768 181.462Z" stroke="white" stroke-width="1.5" stroke-miterlimit="10" stroke-linecap="round" stroke-dasharray="0.03 15"/>
<path d="M109.635 166.506C111.39 153.354 105.1 140.726 95.5862 138.3C86.0721 135.873 76.9367 144.568 75.1816 157.72C73.4266 170.872 79.7164 183.5 89.2305 185.927C98.7445 188.353 107.88 179.658 109.635 166.506Z" fill="#E6E7E8"/>
<path d="M111.687 145.521L105.531 137.812L76.2089 182.559L82.3649 190.268L111.687 145.521Z" fill="white"/>
<path d="M114.344 148.84L113.177 147.379L83.8528 192.123L85.0191 193.584L114.344 148.84Z" fill="white"/>
<path d="M103.557 135.897L101.56 133.398L72.2277 178.137L74.2241 180.636L103.557 135.897Z" fill="white"/>
<path d="M109.635 147.577C109.395 147.577 109.161 147.676 108.961 147.86C108.762 148.045 108.607 148.307 108.515 148.613C108.424 148.92 108.4 149.257 108.447 149.582C108.494 149.907 108.61 150.206 108.78 150.44C108.95 150.674 109.167 150.833 109.402 150.897C109.638 150.961 109.881 150.927 110.103 150.799C110.324 150.671 110.513 150.455 110.646 150.179C110.778 149.902 110.849 149.577 110.848 149.246C110.846 148.803 110.718 148.378 110.491 148.065C110.264 147.753 109.956 147.577 109.635 147.577Z" fill="#A7A9AC"/>
<path d="M70.639 82.5667H114.178" stroke="#A7A9AC" stroke-miterlimit="10"/>
<path d="M68.1248 86.4683H116.692" stroke="#A7A9AC" stroke-miterlimit="10"/>
<path d="M117.552 108.953L125.823 108.949" stroke="#A7A9AC" stroke-miterlimit="10"/>
<path d="M117.554 112.829L130.736 112.823" stroke="#A7A9AC" stroke-miterlimit="10"/>
<path d="M117.555 116.705L130.737 116.699" stroke="#A7A9AC" stroke-miterlimit="10"/>
<path d="M117.557 120.581L130.739 120.575" stroke="#A7A9AC" stroke-miterlimit="10"/>
<path d="M109.64 149.24L117.88 149.263V124.889" stroke="#A7A9AC" stroke-width="0.75" stroke-miterlimit="10"/>
<path d="M67.6809 103.228L59.4102 103.224" stroke="#A7A9AC" stroke-miterlimit="10"/>
<path d="M67.6793 107.104L54.4973 107.098" stroke="#A7A9AC" stroke-miterlimit="10"/>
<path d="M67.6784 110.98L54.4965 110.974" stroke="#A7A9AC" stroke-miterlimit="10"/>
<path d="M67.6775 114.856L54.4955 114.85" stroke="#A7A9AC" stroke-miterlimit="10"/>
<path d="M81.733 150.916L67.3521 150.939V119.171" stroke="#A7A9AC" stroke-width="0.75" stroke-miterlimit="10"/>
<path d="M78.3612 198.542L70.0905 198.538" stroke="#A7A9AC" stroke-miterlimit="10"/>
<path d="M78.3591 202.418L65.1771 202.412" stroke="#A7A9AC" stroke-miterlimit="10"/>
<path d="M78.3582 206.294L65.1762 206.288" stroke="#A7A9AC" stroke-miterlimit="10"/>
<path d="M78.3572 210.172L65.1752 210.166" stroke="#A7A9AC" stroke-miterlimit="10"/>
<path d="M86.3759 181.077L86.392 213.727H63.411" stroke="#A7A9AC" stroke-width="0.75" stroke-miterlimit="10"/>
<path d="M441.85 68.9858H388.754V187.729H456.185V90.3373L441.85 68.9858Z" fill="white" stroke="#A7A9AC" stroke-miterlimit="10"/>
<path d="M441.848 74.1174H392.464V182.603H452.472V90.139" stroke="#A7A9AC" stroke-miterlimit="10"/>
<path d="M441.851 68.9858V90.2773L456.185 90.3387" stroke="#A7A9AC" stroke-miterlimit="10"/>
<path d="M407.723 126.607L437.192 126.588C432.91 120.186 427.938 114.738 422.452 110.436C416.969 114.744 412 120.199 407.723 126.607Z" fill="url(#paint5_linear_1_542)"/>
<path d="M438.875 125.741H406.939V127.452H438.875V125.741Z" fill="url(#paint6_linear_1_542)"/>
<path d="M406.108 160.718C406.108 160.845 406.136 160.97 406.187 161.076C406.238 161.181 406.311 161.264 406.397 161.313C406.482 161.361 406.576 161.374 406.666 161.349C406.757 161.324 406.84 161.262 406.905 161.172C406.97 161.082 407.014 160.967 407.032 160.842C407.05 160.717 407.041 160.587 407.006 160.469C406.97 160.351 406.911 160.251 406.834 160.18C406.757 160.109 406.667 160.072 406.575 160.072C406.513 160.072 406.453 160.088 406.396 160.121C406.339 160.153 406.288 160.201 406.244 160.261C406.201 160.321 406.167 160.392 406.143 160.471C406.12 160.549 406.108 160.633 406.108 160.718Z" fill="#A7A9AC"/>
<path d="M405.246 160.382H401.542V161.056H405.246V160.382Z" fill="#A7A9AC"/>
<path d="M406.108 163.191C406.108 163.318 406.136 163.443 406.187 163.549C406.238 163.655 406.311 163.737 406.397 163.786C406.482 163.834 406.576 163.847 406.666 163.822C406.757 163.797 406.84 163.735 406.905 163.645C406.97 163.555 407.014 163.44 407.032 163.315C407.05 163.19 407.041 163.06 407.006 162.942C406.97 162.825 406.911 162.724 406.834 162.653C406.757 162.582 406.667 162.545 406.575 162.545C406.513 162.545 406.453 162.561 406.396 162.594C406.339 162.626 406.288 162.674 406.244 162.734C406.201 162.794 406.167 162.865 406.143 162.944C406.12 163.022 406.108 163.106 406.108 163.191Z" fill="#A7A9AC"/>
<path d="M405.246 162.854H401.542V163.529H405.246V162.854Z" fill="#A7A9AC"/>
<path d="M406.108 165.664C406.108 165.792 406.136 165.916 406.187 166.022C406.239 166.128 406.312 166.21 406.397 166.259C406.482 166.307 406.576 166.32 406.666 166.295C406.757 166.27 406.84 166.208 406.905 166.118C406.97 166.028 407.015 165.913 407.033 165.788C407.05 165.663 407.041 165.533 407.006 165.415C406.971 165.298 406.911 165.197 406.834 165.126C406.757 165.056 406.667 165.018 406.575 165.018C406.451 165.018 406.332 165.086 406.245 165.208C406.157 165.329 406.108 165.493 406.108 165.664Z" fill="#A7A9AC"/>
<path d="M405.247 165.329H401.543V166.003H405.247V165.329Z" fill="#A7A9AC"/>
<path d="M444.328 144.092C437.576 122.787 422.449 111.878 422.449 111.878C422.449 111.878 407.344 122.797 400.602 144.092H444.328Z" stroke="#231F20" stroke-miterlimit="10"/>
<path d="M437.299 99.7012L443.904 99.6982" stroke="#A7A9AC" stroke-miterlimit="10"/>
<path d="M437.3 103.364L447.827 103.359" stroke="#A7A9AC" stroke-miterlimit="10"/>
<path d="M437.301 107.027L447.828 107.022" stroke="#A7A9AC" stroke-miterlimit="10"/>
<path d="M437.304 110.691L447.831 110.686" stroke="#A7A9AC" stroke-miterlimit="10"/>
<path d="M428.945 130.715L428.939 107.046L434.909 107.035" stroke="#A7A9AC" stroke-miterlimit="10"/>
<path d="M428.937 129.133C428.711 129.135 428.491 129.229 428.304 129.403C428.117 129.577 427.972 129.824 427.886 130.113C427.801 130.401 427.779 130.718 427.824 131.024C427.869 131.329 427.978 131.61 428.138 131.83C428.298 132.049 428.501 132.199 428.722 132.259C428.944 132.319 429.173 132.287 429.381 132.168C429.589 132.048 429.767 131.846 429.892 131.587C430.017 131.327 430.084 131.023 430.084 130.711C430.083 130.291 429.962 129.89 429.747 129.594C429.531 129.298 429.24 129.132 428.937 129.133Z" fill="#BCBEC0"/>
<path d="M407.594 89.2022L400.989 89.1992" stroke="#A7A9AC" stroke-miterlimit="10"/>
<path d="M407.591 92.8639L397.064 92.8589" stroke="#A7A9AC" stroke-miterlimit="10"/>
<path d="M407.59 96.5279L397.063 96.5229" stroke="#A7A9AC" stroke-miterlimit="10"/>
<path d="M407.59 100.191L397.062 100.186" stroke="#A7A9AC" stroke-miterlimit="10"/>
<path d="M415.947 120.216L415.953 109.015L397.266 109.001V103.365" stroke="#A7A9AC" stroke-miterlimit="10"/>
<path d="M415.954 118.638C416.18 118.64 416.4 118.734 416.587 118.909C416.773 119.083 416.919 119.331 417.004 119.619C417.089 119.908 417.111 120.225 417.066 120.53C417.021 120.836 416.912 121.116 416.752 121.336C416.592 121.555 416.388 121.705 416.167 121.764C415.945 121.824 415.716 121.792 415.508 121.672C415.3 121.552 415.122 121.35 414.997 121.091C414.872 120.831 414.806 120.526 414.806 120.215C414.806 120.007 414.837 119.801 414.895 119.61C414.953 119.418 415.037 119.244 415.144 119.098C415.251 118.951 415.377 118.835 415.516 118.756C415.655 118.678 415.804 118.637 415.954 118.638Z" fill="#BCBEC0"/>
<path d="M429.644 170.51L436.249 170.513" stroke="#A7A9AC" stroke-miterlimit="10"/>
<path d="M429.645 166.847L440.172 166.852" stroke="#A7A9AC" stroke-miterlimit="10"/>
<path d="M429.646 163.184L440.173 163.189" stroke="#A7A9AC" stroke-miterlimit="10"/>
<path d="M429.648 159.521L440.175 159.526" stroke="#A7A9AC" stroke-miterlimit="10"/>
<path d="M419.565 139.262L419.559 170.272L426.933 170.286" stroke="#A7A9AC" stroke-miterlimit="10"/>
<path d="M419.559 140.84C419.333 140.838 419.113 140.745 418.926 140.57C418.739 140.396 418.594 140.149 418.508 139.86C418.423 139.572 418.401 139.255 418.446 138.949C418.491 138.644 418.6 138.363 418.76 138.144C418.92 137.924 419.123 137.774 419.344 137.714C419.565 137.654 419.795 137.686 420.003 137.805C420.211 137.925 420.389 138.127 420.514 138.386C420.639 138.646 420.706 138.951 420.706 139.262C420.706 139.47 420.676 139.676 420.618 139.867C420.56 140.059 420.475 140.233 420.369 140.38C420.262 140.526 420.136 140.642 419.997 140.721C419.858 140.8 419.709 140.841 419.559 140.84Z" fill="#BCBEC0"/>
<path d="M35.1477 336.419L40.6719 345.76L39.3456 351.689L34.5638 352.667L29.0395 343.324C28.3968 345.606 28.3188 348.118 28.8179 350.468C29.3171 352.818 30.365 354.874 31.7983 356.313C33.2316 357.753 34.9695 358.496 36.7405 358.426C38.5115 358.357 40.216 357.478 41.5877 355.928C42.9595 354.378 43.9213 352.244 44.3229 349.858C44.7246 347.473 44.5434 344.971 43.8078 342.743C43.0722 340.515 41.8236 338.686 40.2568 337.543C38.6901 336.399 36.8935 336.005 35.1477 336.421V336.419Z" fill="#D7DEF9"/>
<path d="M43.7305 350.934L37.6227 357.836L58.9269 393.862L65.0348 386.96L43.7305 350.934Z" fill="#D7DEF9"/>
<path d="M60.4256 387.78C59.1974 389.168 58.2945 391.028 57.831 393.125C57.3676 395.222 57.3644 397.462 57.8219 399.562C58.2794 401.662 59.1771 403.527 60.4014 404.921C61.6256 406.315 63.1215 407.177 64.6999 407.396C66.2782 407.615 67.8682 407.182 69.2686 406.152C70.669 405.122 71.817 403.541 72.5675 401.609C73.3179 399.677 73.637 397.481 73.4845 395.298C73.3319 393.116 72.7146 391.045 71.7106 389.347C70.3643 387.071 68.4191 385.627 66.3028 385.333C64.1865 385.039 62.0724 385.919 60.4256 387.78ZM70.0934 395.329L68.4459 401.343L63.8549 402.379L60.9104 397.399L62.5569 391.384L67.1489 390.349L70.0934 395.329Z" fill="#D7DEF9"/>
<path d="M90.6501 413.363L93.247 400.819L97.8744 398.792L101.448 404.064L98.8512 416.608C100.714 415.99 102.377 414.537 103.579 412.475C104.782 410.413 105.457 407.859 105.498 405.211C105.54 402.563 104.946 399.97 103.809 397.838C102.672 395.706 101.057 394.155 99.2148 393.426C97.3728 392.697 95.4081 392.832 93.6275 393.81C91.8469 394.787 90.3506 396.553 89.3723 398.83C88.394 401.107 87.9888 403.768 88.22 406.397C88.4512 409.026 89.3056 411.476 90.6501 413.363Z" fill="#D7DEF9"/>
<path d="M104.699 345.523L94.6898 393.874L102.888 397.117L112.897 348.766L104.699 345.523Z" fill="#D7DEF9"/>
<path d="M108.075 350.657C109.724 351.31 111.476 351.272 113.109 350.548C114.743 349.824 116.184 348.447 117.251 346.591C118.318 344.735 118.963 342.483 119.104 340.12C119.245 337.757 118.877 335.389 118.044 333.316C117.212 331.243 115.954 329.558 114.429 328.473C112.904 327.388 111.18 326.953 109.476 327.223C107.772 327.492 106.164 328.454 104.856 329.987C103.547 331.52 102.597 333.555 102.125 335.834C101.811 337.347 101.716 338.931 101.846 340.495C101.975 342.06 102.326 343.573 102.879 344.95C103.431 346.326 104.175 347.539 105.066 348.518C105.958 349.497 106.981 350.224 108.075 350.657ZM106.964 334.133L111.844 332.448L115.34 337.448L113.956 344.134L109.075 345.818L105.579 340.819L106.964 334.133Z" fill="#D7DEF9"/>
<path d="M41.0133 324.79L61.4246 317.47L78.4864 413.451C78.4864 413.451 77.245 419.304 70.9197 421.635C64.5944 423.965 60.5954 420.039 60.5954 420.039L41.0133 324.79Z" fill="#E4E7F9"/>
<path d="M48.0007 311.135C48.0007 311.135 58.2311 307.804 61.0442 315.045C63.8574 322.286 58.4826 327.097 53.8522 329.238C49.2219 331.378 40.2016 331.727 41.3683 322.508C42.3935 314.41 51.9037 313.402 54.1785 315.394C56.4533 317.387 56.9927 322.635 50.8815 324.451C44.7704 326.266 46.6299 318.793 49.7966 318.187" fill="#F0F4FF"/>
<path d="M47.0611 323.493C47.0611 323.493 49.2077 326.679 53.242 323.782C57.6764 320.598 56.8502 310.569 46.6986 315.35C36.4641 320.169 41.4237 331.751 48.5288 330.78L47.0611 323.493Z" fill="#E6EBFC"/>
<path d="M50.65 325.087L49.3116 318.139C49.3116 318.139 46.2722 320.084 46.653 322.646C47.1257 325.808 50.65 325.087 50.65 325.087Z" fill="white"/>
<path d="M46.6896 322.89L48.2048 330.849C51.4315 330.623 54.5731 329.339 57.3706 327.105L55.6261 318.048C55.6261 318.048 56.1534 322.473 52.1917 324.317C48.2301 326.16 46.6896 322.89 46.6896 322.89Z" fill="#D7DEF9"/>
<path d="M79.0277 320.227L97.9602 325.197L84.9419 413.707C84.9419 413.707 82.2631 417.874 76.3782 416.384C70.4933 414.894 68.2973 409.493 68.2973 409.493L79.0277 320.227Z" fill="#E4E7F9"/>
<path d="M88.6587 312.717C88.6587 312.717 98.0527 315.487 98.3315 322.988C98.6103 330.49 92.8102 331.563 88.3799 330.832C83.9495 330.1 76.398 325.526 79.9667 318.533C83.098 312.389 91.2435 316.697 92.5597 319.572C93.8759 322.447 92.8395 327.073 87.2778 325.273C81.7162 323.473 85.3587 318.304 88.1506 319.513" fill="#F0F4FF"/>
<path d="M84.3872 322.419C84.3872 322.419 85.26 326.212 89.4115 325.997C93.9752 325.759 96.1258 317.028 86.3873 315.497C76.57 313.962 77.3973 326.2 83.5408 329.233L84.3872 322.419Z" fill="#E6EBFC"/>
<path d="M86.9081 325.677L87.7647 319.213C87.7647 319.213 84.7041 319.179 84.295 321.502C83.791 324.368 86.9081 325.677 86.9081 325.677Z" fill="white"/>
<path d="M84.2544 321.721L83.2563 329.113C85.9861 330.668 88.9443 331.304 91.8867 330.967L93.0039 322.543C93.0039 322.543 92.1959 326.484 88.3978 325.869C84.5998 325.255 84.2544 321.721 84.2544 321.721Z" fill="#D7DEF9"/>
<path d="M140.586 320.177L158.913 328.406L137.933 413.945C137.933 413.945 134.896 417.612 129.194 415.108C123.492 412.604 121.807 406.87 121.807 406.87L140.586 320.177Z" fill="#E4E7F9"/>
<path d="M150.823 314.405C150.823 314.405 159.89 318.788 159.483 326.274C159.076 333.76 153.22 333.814 148.896 332.323C144.572 330.832 137.494 324.967 141.671 318.657C145.34 313.114 153.025 318.797 154.069 321.88C155.112 324.963 153.665 329.37 148.311 326.616C142.958 323.863 147.048 319.369 149.703 321.053" fill="#F0F4FF"/>
<path d="M145.702 323.286C145.702 323.286 146.223 327.196 150.361 327.71C154.907 328.268 157.836 319.982 148.317 316.768C138.721 313.527 138.423 325.819 144.242 329.893L145.702 323.286Z" fill="#E6EBFC"/>
<path d="M147.907 326.956L149.346 320.693C149.346 320.693 146.316 320.126 145.696 322.359C144.933 325.115 147.907 326.956 147.907 326.956Z" fill="white"/>
<path d="M145.634 322.57L143.971 329.729C146.537 331.747 149.413 332.892 152.363 333.072L154.239 324.91C154.239 324.91 153.073 328.68 149.366 327.407C145.659 326.133 145.634 322.57 145.634 322.57Z" fill="#D7DEF9"/>
<path d="M112.907 380.209H47.7217V434.006H112.907V380.209Z" fill="white" stroke="#A7A9AC" stroke-miterlimit="10"/>
<path d="M147.934 380.209H112.26V434.006H147.934V380.209Z" fill="white" stroke="#A7A9AC" stroke-miterlimit="10"/>
<path d="M98.3074 406.167H33.428L47.3786 380.212H112.258L98.3074 406.167Z" fill="white" stroke="#A7A9AC" stroke-miterlimit="10"/>
<path d="M120.218 406.167H156.07L147.933 380.212H112.081L120.218 406.167Z" fill="white" stroke="#A7A9AC" stroke-miterlimit="10"/>
<path d="M21.496 279.212H32.3395" stroke="#707070" stroke-miterlimit="10"/>
<path d="M276.472 362.441H287.315" stroke="#707070" stroke-miterlimit="10"/>
<path d="M294.054 362.441H303.127" stroke="#707070" stroke-miterlimit="10"/>
<path d="M31.3464 272.62H37.8031" stroke="#707070" stroke-miterlimit="10"/>
<path d="M25.4648 207.592C25.465 208.135 25.3488 208.666 25.1308 209.117C24.9128 209.568 24.6029 209.92 24.2402 210.128C23.8776 210.336 23.4784 210.391 23.0933 210.285C22.7082 210.179 22.3545 209.918 22.0768 209.534C21.7991 209.151 21.6099 208.662 21.5333 208.13C21.4566 207.597 21.4959 207.045 21.6461 206.544C21.7963 206.043 22.0507 205.614 22.3771 205.312C22.7035 205.011 23.0873 204.85 23.4799 204.85C24.0062 204.85 24.5109 205.139 24.8831 205.653C25.2553 206.167 25.4646 206.865 25.4648 207.592V207.592Z" stroke="#707070" stroke-miterlimit="10"/>
<path d="M112.407 47.7545C113.503 47.7545 114.392 46.526 114.392 45.0107C114.392 43.4953 113.503 42.2668 112.407 42.2668C111.311 42.2668 110.422 43.4953 110.422 45.0107C110.422 46.526 111.311 47.7545 112.407 47.7545Z" stroke="#707070" stroke-miterlimit="10"/>
<path d="M280.613 391.013C281.709 391.013 282.598 389.785 282.598 388.269C282.598 386.754 281.709 385.525 280.613 385.525C279.517 385.525 278.628 386.754 278.628 388.269C278.628 389.785 279.517 391.013 280.613 391.013Z" stroke="#707070" stroke-miterlimit="10"/>
<path d="M221.674 6.93537C222.77 6.93537 223.658 5.70693 223.658 4.19156C223.658 2.6762 222.77 1.44775 221.674 1.44775C220.577 1.44775 219.689 2.6762 219.689 4.19156C219.689 5.70693 220.577 6.93537 221.674 6.93537Z" stroke="#707070" stroke-miterlimit="10"/>
<path d="M545.306 244.332C545.306 244.875 545.19 245.405 544.972 245.856C544.754 246.307 544.444 246.659 544.081 246.867C543.718 247.075 543.319 247.129 542.934 247.023C542.549 246.917 542.195 246.656 541.918 246.272C541.64 245.888 541.451 245.399 541.375 244.867C541.298 244.335 541.337 243.783 541.488 243.282C541.638 242.781 541.892 242.352 542.219 242.05C542.545 241.749 542.929 241.588 543.321 241.588C543.582 241.588 543.84 241.659 544.081 241.797C544.322 241.934 544.541 242.136 544.725 242.391C544.909 242.646 545.056 242.949 545.155 243.282C545.255 243.615 545.306 243.972 545.306 244.332V244.332Z" stroke="#707070" stroke-miterlimit="10"/>
<path d="M380.145 50.4986C381.241 50.4986 382.13 49.2702 382.13 47.7548C382.13 46.2394 381.241 45.011 380.145 45.011C379.049 45.011 378.16 46.2394 378.16 47.7548C378.16 49.2702 379.049 50.4986 380.145 50.4986Z" stroke="#707070" stroke-miterlimit="10"/>
<path d="M497.235 97.5945H508.078" stroke="#707070" stroke-miterlimit="10"/>
<path d="M486.7 97.5945H493.156" stroke="#707070" stroke-miterlimit="10"/>
<path d="M479.091 119.62V127.318" stroke="#707070" stroke-miterlimit="10"/>
<path d="M481.876 123.47H476.307" stroke="#707070" stroke-miterlimit="10"/>
<path d="M428.894 215.32V223.018" stroke="#707070" stroke-miterlimit="10"/>
<path d="M431.678 219.168H426.109" stroke="#707070" stroke-miterlimit="10"/>
<path d="M179.188 389.339V397.037" stroke="#707070" stroke-miterlimit="10"/>
<path d="M181.972 393.188H176.403" stroke="#707070" stroke-miterlimit="10"/>
<path d="M168.318 84.1125V91.8106" stroke="#707070" stroke-miterlimit="10"/>
<path d="M171.102 87.9622H165.533" stroke="#707070" stroke-miterlimit="10"/>
<path d="M461.884 433.699H459.965L462.556 354.278H467L461.884 433.699Z" fill="#BCBEC0"/>
<path d="M484.77 354.276L496.664 434.006" stroke="#231F20" stroke-width="0.75" stroke-miterlimit="10"/>
<path d="M442.612 354.276L430.718 434.006" stroke="#231F20" stroke-width="0.75" stroke-miterlimit="10"/>
<path d="M448.257 318.337C448.257 322.307 448.382 334.003 445.57 338.789C442.472 344.063 438.742 341.567 432.452 345.537C428.297 348.158 428.954 361.465 436.276 361.465H486.432C508.453 361.465 512.126 323.243 509.507 286.806C507.042 252.537 493.446 240.044 477.938 240.857C459.297 241.833 448.257 273.998 448.257 318.337Z" fill="#58595B"/>
<path d="M443.711 433.721L469.914 433.693L469.914 432.072L443.71 432.099L443.711 433.721Z" fill="#BCBEC0"/>
<path d="M466.185 418.699L468.453 419.438C468.453 419.438 469.32 423.532 469.653 426.382C469.857 428.264 469.944 430.168 469.913 432.071L443.71 432.099C443.71 432.099 444.395 428.96 450.648 423.897C452.061 422.788 453.32 421.34 454.366 419.62L466.185 418.699Z" fill="#58595B"/>
<path d="M451.853 422.806L453.487 425.491" stroke="white" stroke-width="0.75" stroke-miterlimit="10"/>
<path d="M449.907 424.567L451.541 427.252" stroke="white" stroke-width="0.75" stroke-miterlimit="10"/>
<path d="M448.091 426.179L449.725 428.865" stroke="white" stroke-width="0.75" stroke-miterlimit="10"/>
<path d="M468.883 405.666L468.453 419.438C468.453 419.438 467.353 421.277 462.902 421.281C460.017 421.23 457.149 420.671 454.366 419.62L453.487 401.04" fill="#F2B18F"/>
<path d="M414.65 434.007L440.342 426.892L440.111 425.302L414.419 432.417L414.65 434.007Z" fill="#BCBEC0"/>
<path d="M434.562 413.195L436.885 413.307C436.885 413.307 438.316 417.087 439.046 419.793C439.513 421.584 439.868 423.427 440.108 425.301L414.414 432.416C414.414 432.416 414.642 429.153 420.057 422.502C421.286 421.032 422.316 419.271 423.097 417.302L434.562 413.195Z" fill="#58595B"/>
<path d="M421.735 420.117L423.736 422.277" stroke="white" stroke-width="0.75" stroke-miterlimit="10"/>
<path d="M420.095 422.397L422.096 424.557" stroke="white" stroke-width="0.75" stroke-miterlimit="10"/>
<path d="M418.56 424.492L420.561 426.653" stroke="white" stroke-width="0.75" stroke-miterlimit="10"/>
<path d="M433.35 400.62L436.885 413.307C436.885 413.307 436.068 415.408 431.705 416.616C428.868 417.346 425.976 417.574 423.098 417.296L417.373 400.449" fill="#F2B18F"/>
<path d="M455.324 304.859C455.324 304.859 418.165 310.112 407.313 329.829C396.46 349.547 414.99 416.059 414.99 416.059L435.89 406.31C435.89 406.31 424.992 358.739 428.402 348.781C431.812 338.822 463.526 340.961 463.526 340.961L484.217 302.003" fill="#231F20"/>
<path d="M493.919 304.859C493.919 304.859 499.244 318.381 495.232 333.445C491.727 346.605 479.699 339.213 473.187 344.689C466.675 350.166 470.128 413.904 470.128 413.904L447.959 414.156C447.959 414.156 441.421 353.349 447.003 333.447C452.585 313.545 471.812 306.685 471.812 306.685" fill="#231F20"/>
<path d="M480.418 309.995C481.327 316.327 490.334 314.985 490.334 314.985" stroke="#D1D3D4" stroke-width="0.75" stroke-linejoin="round"/>
<path d="M464.661 309.995C450.25 319.844 446.03 330.487 445.243 340.756" stroke="#D1D3D4" stroke-width="0.75" stroke-linejoin="round"/>
<path d="M487.927 307.764C487.927 307.764 493.463 318.322 489.454 328.616C485.445 338.91 471.46 332.33 467.664 342.747C463.868 353.164 467.113 413.702 467.113 413.702" stroke="#D1D3D4" stroke-width="0.75" stroke-linejoin="round"/>
<path d="M446.883 332.031C446.883 332.031 426.782 336.941 423.92 347.26C421.059 357.579 432.931 407.688 432.931 407.688" stroke="#D1D3D4" stroke-width="0.75" stroke-linejoin="round"/>
<path d="M460.866 202.827C460.866 202.827 455.934 214.8 458.381 219.659C459.653 222.185 464.158 223.652 466.361 221.977C467.998 220.733 471.356 211.424 470.756 209.508C468.467 202.188 460.866 202.827 460.866 202.827Z" fill="#F2B18F"/>
<path d="M471.039 217.773L471.948 231.901C471.948 231.901 464.508 239.752 460.1 230.849L460.692 219.679L471.039 217.773Z" fill="#F2B18F"/>
<path d="M473.684 215.641C474.449 213.356 474.953 210.92 475.178 208.422C475.282 207.553 475.163 206.661 474.841 205.901C474.52 205.141 474.017 204.559 473.419 204.256C473.419 204.256 473.764 204.608 472.611 201.809C471.526 199.167 468.199 199.506 466.181 199.195C463.53 198.786 461.068 196.519 459.562 198.055C458.905 198.724 457.558 203.631 459.758 205.142C461.016 206.005 463.008 205.339 464.435 205.561C467.092 205.964 469.039 206.965 469.442 209.271C469.591 210.405 469.506 211.574 469.196 212.644C469.113 213.006 469.045 213.374 468.994 213.747L470.077 214.717C471.456 215.88 468.663 219.299 468.929 220.835C469.069 221.64 470.263 221.912 471.284 221.179C472.306 220.446 472.942 218.515 473.684 215.641Z" fill="#231F20"/>
<path d="M469.413 214.899C470.544 213.132 471.386 213.492 471.81 214.543C472.378 215.947 471.016 218.664 470.416 219.099C469.204 219.982 468.252 219.806 468.214 218.477" fill="#F2B18F"/>
<path d="M460.547 222.381C462.628 223.116 464.83 222.819 466.77 221.543" stroke="#E88872" stroke-width="0.75" stroke-linejoin="round"/>
<path fill-rule="evenodd" clip-rule="evenodd" d="M439.73 244.181C439.73 244.181 427.567 256.252 425.258 256.252C423.004 256.252 409.162 230.624 409.162 230.624L402.66 236.372C402.66 236.372 416.095 278.179 425.346 278.458C434.598 278.737 449.488 261.752 449.488 261.752L445.658 239.509" fill="#F2B18F"/>
<path fill-rule="evenodd" clip-rule="evenodd" d="M404.947 240.134L410.63 233.687C408.75 227.591 402.493 212.911 401.549 213.518C400.604 214.126 403.042 220.705 403.552 222.269C403.204 221.152 400.854 221.448 401.127 223.456C401.063 222.978 400.286 223.111 400.038 223.245C399.756 223.406 399.518 223.686 399.357 224.044C399.196 224.403 399.121 224.822 399.142 225.243C399.009 225.103 398.845 225.034 398.678 225.048C398.511 225.062 398.353 225.158 398.233 225.319C396.738 227.024 397.756 231.602 398.388 231.85C399.02 232.097 399.071 228.127 399.071 228.127C399.071 228.127 400.19 231.172 400.384 231.648C400.757 232.557 401.177 233.476 401.596 234.354C402.62 236.381 403.739 238.312 404.947 240.134Z" fill="#F2B18F"/>
<path d="M407.171 226.397C406.297 223.996 404.884 220.825 404.303 221.765C403.623 222.862 404.792 225.563 404.781 227.678C404.257 230.015 404.781 233.018 405.503 233.785" stroke="#E2845A" stroke-width="0.75" stroke-miterlimit="10"/>
<path d="M460.003 229.099C460.003 229.099 451.098 229.099 436.943 245.792L448.088 267.747L456.707 249.684" fill="#BCBEC0"/>
<path d="M447.313 306.453C475.448 316.786 496.663 307.834 496.663 307.834C496.663 307.834 496.728 232.207 471.815 229.287C470.519 231.08 468.717 232.844 464.372 232.038C462.761 231.586 461.259 230.577 460.005 229.106C460.005 229.106 447.639 245.987 447.725 261.906C447.833 282.297 446.31 299.391 447.313 306.453Z" fill="#BCBEC0"/>
<path d="M448.088 266.024C448.449 259.767 449.235 253.57 450.435 247.517L448.088 266.024Z" fill="#939598"/>
<path d="M456.657 300.464H421.848C421.371 300.465 420.908 300.245 420.532 299.841C420.155 299.436 419.887 298.869 419.769 298.23L414.54 269.757C414.447 269.252 414.439 268.723 414.516 268.213C414.594 267.702 414.754 267.223 414.986 266.811C415.218 266.399 415.514 266.066 415.853 265.837C416.192 265.608 416.565 265.489 416.942 265.489H448.322C448.869 265.489 449.4 265.741 449.831 266.205C450.263 266.669 450.57 267.319 450.704 268.051L456.657 300.464Z" fill="#231F20"/>
<path d="M435.858 282.983C435.858 284.723 434.528 286.134 432.888 286.134C431.247 286.134 429.917 284.723 429.917 282.983C429.917 281.244 431.247 279.832 432.888 279.832C434.528 279.832 435.858 281.242 435.858 282.983Z" fill="url(#paint7_linear_1_542)"/>
<path d="M449.442 295.577C448.008 295.748 446.576 295.934 445.145 296.136C442.849 296.465 435.987 296.904 435.808 297.74C435.629 298.577 438.096 298.356 438.5 298.416C438.904 298.476 439.435 298.67 439.435 299.231C439.435 299.694 438.412 299.923 437.027 299.983C434.682 300.083 431.596 299.983 431.596 299.983C432.313 301.78 439.103 304.69 440.676 304.688C446.036 304.772 451.393 304.316 456.704 303.323" fill="#F2B18F"/>
<path d="M489.268 263.105C489.268 263.105 486.445 290.264 482.559 297.369C477.514 306.596 448.163 304.614 448.163 304.614L446.613 296.308C446.613 296.308 466.45 289.496 468.517 286.639C470.584 283.782 472.707 261.131 472.707 261.131" fill="#F2B18F"/>
<path d="M471.813 229.287C486.122 231.341 491.096 248.6 489.867 269.583L470.264 267.511L470.829 250.336" fill="#BCBEC0"/>
<path d="M470.968 267.585C471.651 261.744 472.333 251.964 472.333 251.964L470.968 267.585Z" fill="#939598"/>
<path d="M489.267 269.52C489.719 266.029 490.046 258.384 490.046 258.384L489.267 269.52Z" fill="#939598"/>
<path d="M386.955 200.52C386.955 200.52 392.046 215.001 391.71 229.579C391.539 236.98 380.873 269.484 380.873 269.484C380.873 269.484 373.417 248.136 372.842 247.342C372.267 246.547 378.692 222.999 378.692 221.903C378.692 220.807 372.805 203.536 372.805 203.536" fill="#F2B18F"/>
<path d="M342.699 296.774L346.047 419.931L337.878 427.036C337.878 427.036 360.247 428.81 360.978 427.804C361.71 426.797 360.091 419.844 360.091 419.844L367.061 298.667L342.699 296.774Z" fill="#F2B18F"/>
<path d="M357.414 427.685L360.764 423.18L360.301 420.798L355.155 427.679H352.69L344.027 421.687L334.568 429.778C334.332 429.98 334.15 430.283 334.05 430.641C333.949 430.998 333.936 431.391 334.012 431.76C334.087 432.13 334.248 432.455 334.469 432.686C334.69 432.918 334.96 433.044 335.237 433.045L347.91 433.074L351.966 429.207H353.114L353.109 433.076L361.363 433.095L361.369 427.689L357.414 427.685Z" fill="#58595B"/>
<path d="M365.244 298.191L376.599 420.111L368.417 427.195C368.417 427.195 390.784 429.031 391.517 428.026C392.25 427.02 390.641 420.067 390.641 420.067L390.035 299.162L365.244 298.191Z" fill="#F2B18F"/>
<path d="M387.955 427.901L391.311 423.407L390.852 421.023L385.695 427.89L383.23 427.878L374.577 421.862L365.105 429.925C364.868 430.126 364.686 430.429 364.585 430.786C364.484 431.144 364.47 431.537 364.545 431.907C364.62 432.277 364.78 432.602 365.002 432.835C365.223 433.067 365.493 433.194 365.77 433.195L378.443 433.259L382.508 429.411H383.656L383.646 433.28L391.899 433.323L391.914 427.915L387.955 427.901Z" fill="#58595B"/>
<path d="M381.582 244.331C384.774 247.032 388.36 257.903 390.155 266.996C394.331 288.14 391.914 321.49 391.914 321.49H341.728C341.728 321.49 340.537 263.362 345.044 244.331" fill="#231F20"/>
<path d="M349.449 241.873C345.092 269.323 345.604 321.492 345.604 321.492" stroke="#D1D3D4" stroke-width="0.75" stroke-linejoin="round"/>
<path d="M366.563 176.362C366.563 176.362 365.069 178.438 361.478 178.542C359.938 178.751 358.399 178.13 357.182 176.809C357.182 176.809 349.433 177.367 345.97 183.596C340.016 194.292 345.049 244.337 345.049 244.337H381.586C381.813 215.006 389.59 183.68 366.567 176.366" fill="#BCBEC0"/>
<path d="M306.832 197.488C304.882 194.835 297.463 182.709 296.927 182.931C296.391 183.153 298.028 186.339 297.562 186.407C297.097 186.475 293.877 181.176 293.384 181.595C292.715 182.165 296.187 187.369 296.187 187.369C296.187 187.369 295.416 186.336 294.939 187.062C294.602 187.576 295.264 189.272 295.264 189.272C295.264 189.272 294.42 188.771 294.077 189.316C293.735 189.86 294.458 191.212 294.458 191.212C294.458 191.212 293.787 190.963 293.549 191.586C293.324 192.172 294.74 196.146 298.474 202.384" fill="#F2B18F"/>
<path fill-rule="evenodd" clip-rule="evenodd" d="M334.757 196.867C334.757 196.867 324.769 212.288 322.514 212.979C320.314 213.653 302.79 192.769 302.79 192.769L297.342 200.324C297.342 200.324 316.997 237.126 326.075 234.632C335.154 232.139 347.032 211.107 347.032 211.107L339.813 190.533" fill="#F2B18F"/>
<path d="M357.182 176.808C357.182 176.808 345.544 177.227 333.965 196.931L345.574 215.001L354.968 201.25" fill="#BCBEC0"/>
<path d="M372.068 178.656C381.329 182.626 388.51 202.384 388.51 202.384L380.578 212.644" fill="#BCBEC0"/>
<path d="M383.026 209.476C382.933 204.599 382.579 199.739 381.969 194.934L383.026 209.476Z" fill="#939598"/>
<path d="M357.361 168.947L356.957 176.827C357.657 177.844 358.505 178.645 359.446 179.176C360.386 179.707 361.397 179.958 362.412 179.91C366.715 179.688 367.757 176.362 367.757 176.362L365.143 160.565" fill="#F2B18F"/>
<path d="M356.251 150.535C353.708 154.319 349.757 167.625 354.433 170.782C359.356 174.11 365.882 171.991 367.485 163.085C369.165 153.726 362.935 140.583 356.251 150.535Z" fill="#F2B18F"/>
<path d="M357.191 172.27C358.463 172.489 359.755 172.286 360.959 171.678C362.163 171.07 363.245 170.074 364.115 168.772" stroke="#E2845A" stroke-width="0.75" stroke-miterlimit="10"/>
<path d="M366.044 160.717L366.006 160.802" stroke="#FF855A" stroke-width="0.75" stroke-miterlimit="10"/>
<path d="M356.545 152.592C355.646 153.336 354.574 153.576 353.551 153.262C354.056 148.934 357.212 144.669 360.493 146.444C363.595 144.33 367.724 146.61 369.666 150.341C371.463 153.787 371.262 158.694 370.636 162.812C370.105 166.313 368.01 170.352 366.38 170.521C364.838 169.355 363.437 168.022 362.361 163.64C359.599 158.943 356.815 154.111 356.545 152.592Z" fill="#231F20"/>
<path d="M360.542 160.918C360.624 160.58 360.771 160.279 360.966 160.045C361.162 159.812 361.399 159.655 361.653 159.591C362.923 159.23 363.43 161.469 363.103 163.108C362.921 164.094 362.516 164.974 361.948 165.621C361.156 166.565 360.247 166.639 359.911 165.232" fill="#F2B18F"/>
<path d="M366.833 168.773C366.833 168.773 371.645 171.758 372.426 177.11C373.207 182.462 370.284 186.337 366.833 184.011C363.381 181.685 365.402 168.023 365.402 168.023" fill="#231F20"/>
<path d="M558.857 433.245H0V434.981H558.857V433.245Z" fill="#BCBEC0"/>
<path d="M133.671 163.668L134.141 173.115C133.627 174.554 132.809 175.744 131.795 176.528C130.782 177.311 129.62 177.651 128.464 177.503C124.209 176.905 123.491 173.624 123.491 173.624L125.474 155.827" fill="#F2B18F"/>
<path d="M134.909 144.074C137.463 147.967 140.869 162.302 136.255 165.645C131.393 169.168 125.515 166.483 123.856 157.267C122.113 147.565 128.198 133.842 134.909 144.074Z" fill="#F2B18F"/>
<path d="M134.142 167.14C134.142 167.14 130.59 167.9 128.485 164.997" stroke="#E2845A" stroke-width="0.75" stroke-miterlimit="10"/>
<path d="M124.388 156.222L124.431 156.305" stroke="#FF855A" stroke-width="0.75" stroke-miterlimit="10"/>
<path d="M125.167 156.733C125.044 156.416 124.861 156.151 124.637 155.966C124.414 155.781 124.158 155.683 123.897 155.682C122.611 155.658 122.431 158.077 122.979 159.66C123.289 160.606 123.807 161.393 124.458 161.911C125.367 162.658 126.257 162.488 126.386 160.961" fill="#F2B18F"/>
<path d="M126.408 158.353C127.656 158.353 127.05 153.822 127.05 153.822C127.51 153.906 127.978 153.847 128.419 153.649C128.859 153.45 129.262 153.117 129.598 152.674C130.687 151.181 129.32 149.799 129.32 149.799C129.32 149.799 131.697 152.011 133.575 150.887C134.011 150.668 134.378 150.246 134.613 149.692C134.847 149.138 134.934 148.488 134.858 147.855C134.858 147.855 136.513 149.67 137.318 148.372C138.763 146.033 138.216 143.506 136.471 141.334C136.057 140.717 135.526 140.273 134.938 140.053C134.35 139.834 133.73 139.847 133.147 140.092C133.147 140.092 130.622 136.259 127.799 137.134C125.179 137.948 122.397 140.018 122.334 144.712C122.334 144.712 120.044 143.863 119.193 148.09C118.415 151.956 119.777 153.256 119.777 153.256C119.219 154.985 119.162 156.942 119.616 158.727C119.93 159.552 120.365 160.276 120.893 160.855C121.421 161.433 122.031 161.853 122.684 162.087C122.684 162.087 121.811 164.74 123.905 164.981C125.999 165.223 126.088 163.015 125.248 162.328C123.356 160.777 122.016 158.48 123.413 156.067C124.81 153.654 126.408 158.353 126.408 158.353Z" fill="#231F20"/>
<path d="M162.378 433.346H136.175V434.967H162.378V433.346Z" fill="#BCBEC0"/>
<path d="M139.904 419.96L137.636 420.699C137.636 420.699 136.769 424.793 136.435 427.643C136.232 429.526 136.144 431.43 136.175 433.333L162.378 433.36C162.378 433.36 161.693 430.221 155.441 425.157C154.027 424.05 152.768 422.601 151.724 420.88L139.904 419.96Z" fill="#58595B"/>
<path d="M136.543 404.788L137.637 420.706C137.637 420.706 138.737 422.545 143.186 422.549C146.072 422.498 148.94 421.94 151.724 420.888L152.176 402.921" fill="#F2B18F"/>
<path d="M153.692 423.504L151.991 426.66" stroke="white" stroke-width="0.75" stroke-miterlimit="10"/>
<path d="M155.307 425.082L153.832 428.238" stroke="white" stroke-width="0.75" stroke-miterlimit="10"/>
<path d="M156.958 426.494L155.589 429.504" stroke="white" stroke-width="0.75" stroke-miterlimit="10"/>
<path d="M150.826 260.788C155.855 342.224 154.754 412.819 154.754 412.819L134.997 413.647C134.997 413.647 128.522 299.686 123.853 283.3C121.656 275.591 121.024 256.965 123.493 243.576" fill="#231F20"/>
<path d="M131.366 309.541C136.161 339.026 139.093 413.084 139.093 413.084" stroke="#58595B" stroke-miterlimit="10"/>
<path d="M122.178 433.346H95.9747V434.967H122.178V433.346Z" fill="#BCBEC0"/>
<path d="M99.7043 419.96L97.4366 420.699C97.4366 420.699 96.5689 424.793 96.2366 427.643C96.0321 429.526 95.9445 431.429 95.9749 433.333L122.178 433.36C122.178 433.36 121.493 430.221 115.242 425.157C113.828 424.05 112.569 422.601 111.524 420.88L99.7043 419.96Z" fill="#58595B"/>
<path d="M98.5039 406.928L97.4362 420.699C97.4362 420.699 98.5362 422.538 102.986 422.542C105.871 422.491 108.74 421.933 111.523 420.881L114.137 402.914" fill="#F2B18F"/>
<path d="M113.491 423.504L111.79 426.66" stroke="white" stroke-width="0.75" stroke-miterlimit="10"/>
<path d="M115.106 425.082L113.631 428.238" stroke="white" stroke-width="0.75" stroke-miterlimit="10"/>
<path d="M116.757 426.494L115.389 429.504" stroke="white" stroke-width="0.75" stroke-miterlimit="10"/>
<path d="M139.215 265.137C139.316 281.264 135.073 280.249 135.073 280.249" stroke="#58595B" stroke-miterlimit="10"/>
<path d="M108.711 245.146C103.863 269.311 106.281 276.153 106.085 285.764C105.726 303.637 96.1031 412.983 96.1031 412.983L118.015 413.48C116.129 427.011 141.504 267.088 135.665 240.676" fill="#231F20"/>
<path d="M120.187 265.137C119.738 271.769 112.93 273.312 112.93 273.312" stroke="#58595B" stroke-miterlimit="10"/>
<path d="M147.079 265.137C147.637 272.232 151.468 271.769 151.468 271.769" stroke="#58595B" stroke-miterlimit="10"/>
<path d="M113.176 263.399C113.176 295.889 100.666 413.086 100.666 413.086" stroke="#58595B" stroke-miterlimit="10"/>
<path d="M129.51 332.73C134.117 298.31 136.177 263.399 136.177 263.399" stroke="#58595B" stroke-miterlimit="10"/>
<path fill-rule="evenodd" clip-rule="evenodd" d="M156.926 194.076C156.926 194.076 162.17 206.261 163.763 208.458C165.356 210.654 177.642 179.151 177.642 179.151L184.658 188.268C184.658 188.268 175.562 232.253 166.427 234.305C157.291 236.358 144.432 215.817 144.432 215.817L139.819 197.301" fill="#F2B18F"/>
<path fill-rule="evenodd" clip-rule="evenodd" d="M183.205 194.715L174.72 186.477C177.227 178.339 182.469 165.015 183.466 165.435C184.463 165.856 182.709 172.836 182.362 174.487C182.595 173.315 184.952 173.154 184.888 175.195C184.904 174.709 185.686 174.692 185.944 174.776C186.24 174.881 186.504 175.112 186.699 175.436C186.895 175.76 187.012 176.162 187.033 176.583C187.15 176.42 187.306 176.32 187.472 176.302C187.638 176.284 187.803 176.348 187.937 176.483C189.589 177.88 189.042 182.611 188.442 182.979C187.842 183.348 187.392 179.424 187.392 179.424C187.392 179.424 186.59 182.655 186.444 183.165C186.165 184.142 185.838 185.128 185.513 186.078C184.733 188.292 183.205 194.715 183.205 194.715Z" fill="#F2B18F"/>
<path d="M179.188 179.262C179.813 176.718 180.892 173.305 181.563 174.124C182.346 175.081 181.462 177.98 181.684 180.072C182.439 182.285 182.224 185.359 181.583 186.258" stroke="#E2845A" stroke-width="0.75" stroke-miterlimit="10"/>
<path d="M134.142 172.19C134.142 172.19 141.984 170.589 147.236 175.061C153.007 179.976 158.262 196.253 158.262 196.253L148.054 201.027" fill="#BCBEC0"/>
<path d="M123.69 171.663C123.69 171.663 124.116 175.411 128.912 175.92C133.264 176.384 134.142 172.189 134.142 172.189C134.142 172.189 145.657 177.139 148.27 196.346C150.989 216.372 152.942 266.903 152.942 266.903H105.456C105.456 266.903 105.961 207.959 110.766 190.54C115.571 173.121 123.69 171.663 123.69 171.663Z" fill="#BCBEC0"/>
<path d="M129.199 245.521H164.008C164.485 245.521 164.948 245.301 165.325 244.897C165.701 244.492 165.969 243.926 166.087 243.287L171.316 214.814C171.409 214.309 171.417 213.781 171.34 213.27C171.263 212.759 171.102 212.28 170.87 211.868C170.639 211.457 170.342 211.123 170.003 210.894C169.664 210.665 169.292 210.546 168.914 210.546H137.533C136.987 210.546 136.456 210.798 136.025 211.261C135.593 211.725 135.286 212.374 135.152 213.107L129.199 245.521Z" fill="#231F20"/>
<path d="M148.389 228.032C148.389 229.773 149.718 231.184 151.36 231.184C153.001 231.184 154.331 229.773 154.331 228.032C154.331 226.291 153 224.88 151.36 224.88C149.719 224.88 148.389 226.292 148.389 228.032Z" fill="url(#paint8_linear_1_542)"/>
<path d="M136.741 240.623C138.174 240.793 139.607 240.979 141.038 241.181C143.334 241.51 150.195 241.948 150.374 242.786C150.553 243.623 148.086 243.401 147.682 243.462C147.278 243.522 146.747 243.716 146.747 244.277C146.747 244.739 147.769 244.968 149.155 245.028C151.5 245.129 156.391 245.516 156.391 245.516C154.856 248.04 147.075 249.587 145.506 249.732C139.21 250.26 132.896 250.251 126.601 249.705" fill="#F2B18F"/>
<path d="M100.8 207.306C100.8 207.306 101.385 235.314 105.271 242.418C110.316 251.644 138.022 249.664 138.022 249.664L139.573 241.357C139.573 241.357 120.791 236.005 118.725 233.148C116.658 230.291 117.627 205.332 117.627 205.332" fill="#F2B18F"/>
<path d="M123.69 171.663C106.14 174.352 99.2897 185.445 100.558 209.111L118.958 207.462L118.197 190.388" fill="#BCBEC0"/>
<path d="M148.909 200.409C148.458 196.517 147.713 192.7 146.687 189.022L148.909 200.409Z" fill="#939598"/>
<path d="M81.7395 149.24C81.9792 149.24 82.2136 149.339 82.4129 149.523C82.6123 149.707 82.7676 149.969 82.8593 150.275C82.9511 150.581 82.9751 150.918 82.9283 151.243C82.8816 151.568 82.7661 151.866 82.5966 152.101C82.4271 152.335 82.2111 152.495 81.9759 152.56C81.7408 152.624 81.4971 152.591 81.2756 152.464C81.0541 152.337 80.8648 152.122 80.7316 151.847C80.5984 151.571 80.5273 151.247 80.5273 150.916C80.5273 150.472 80.655 150.045 80.8823 149.731C81.1097 149.417 81.418 149.24 81.7395 149.24Z" fill="#A7A9AC"/>
<path d="M85.1673 181.063C85.1673 180.732 85.2384 180.408 85.3716 180.132C85.5047 179.857 85.6941 179.642 85.9156 179.515C86.1371 179.388 86.3807 179.355 86.6159 179.42C86.851 179.485 87.067 179.644 87.2365 179.878C87.4061 180.113 87.5215 180.411 87.5683 180.736C87.6151 181.061 87.591 181.398 87.4993 181.704C87.4076 182.011 87.2522 182.272 87.0529 182.457C86.8535 182.641 86.6192 182.739 86.3794 182.739C86.058 182.739 85.7496 182.562 85.5223 182.248C85.295 181.934 85.1673 181.508 85.1673 181.063Z" fill="#A7A9AC"/>
<defs>
<linearGradient id="paint0_linear_1_542" x1="240.594" y1="168.077" x2="316.894" y2="168.077" gradientUnits="userSpaceOnUse">
<stop stop-color="#EF8431"/>
<stop offset="1" stop-color="#E71A86"/>
</linearGradient>
<linearGradient id="paint1_linear_1_542" x1="232.392" y1="259.516" x2="253.709" y2="259.516" gradientUnits="userSpaceOnUse">
<stop stop-color="#EF8431"/>
<stop offset="1" stop-color="#E71A86"/>
</linearGradient>
<linearGradient id="paint2_linear_1_542" x1="303.959" y1="259.471" x2="325.201" y2="259.471" gradientUnits="userSpaceOnUse">
<stop stop-color="#EF8431"/>
<stop offset="1" stop-color="#E71A86"/>
</linearGradient>
<linearGradient id="paint3_linear_1_542" x1="271.294" y1="262.077" x2="280.816" y2="262.077" gradientUnits="userSpaceOnUse">
<stop stop-color="#EF8431"/>
<stop offset="1" stop-color="#E71A86"/>
</linearGradient>
<linearGradient id="paint4_linear_1_542" x1="71.2081" y1="162.113" x2="113.609" y2="162.113" gradientUnits="userSpaceOnUse">
<stop stop-color="#EF8431"/>
<stop offset="1" stop-color="#E71A86"/>
</linearGradient>
<linearGradient id="paint5_linear_1_542" x1="407.723" y1="118.522" x2="437.192" y2="118.522" gradientUnits="userSpaceOnUse">
<stop stop-color="#EF8431"/>
<stop offset="1" stop-color="#E71A86"/>
</linearGradient>
<linearGradient id="paint6_linear_1_542" x1="406.939" y1="126.597" x2="438.875" y2="126.597" gradientUnits="userSpaceOnUse">
<stop stop-color="#EF8431"/>
<stop offset="1" stop-color="#E71A86"/>
</linearGradient>
<linearGradient id="paint7_linear_1_542" x1="429.917" y1="282.983" x2="435.858" y2="282.983" gradientUnits="userSpaceOnUse">
<stop stop-color="#EF8431"/>
<stop offset="1" stop-color="#E71A86"/>
</linearGradient>
<linearGradient id="paint8_linear_1_542" x1="148.389" y1="228.032" x2="154.331" y2="228.032" gradientUnits="userSpaceOnUse">
<stop stop-color="#EF8431"/>
<stop offset="1" stop-color="#E71A86"/>
</linearGradient>
</defs>
</svg>
